<svg width="1920" height="1080" viewBox="0 0 1920 1080" fill="none" xmlns="http://www.w3.org/2000/svg">
<path d="M299.032 194.943C306.331 195.11 308.834 196.174 315.284 199.711C332.348 209.069 349.27 219.101 366.105 228.87L447.043 275.544L701.717 422.469L860.589 514.194L912.942 544.284C968.7 576.399 964.575 575.887 964.566 639.988V714.773L964.603 786.637C964.603 799.861 964.734 813.047 964.294 826.278C963.666 845.093 953.738 847.402 938.381 838.963C914.687 825.946 891.322 812.149 867.885 798.62L729.843 718.838C720.213 713.875 707.161 705.825 697.436 700.215L633.062 663.074L445.969 555.2L389.257 522.319C340.3 493.959 337.474 491.828 337.689 551.369L337.808 602.349L337.785 768.857C337.877 788.926 338.89 812.656 336.884 832.462C335.497 846.144 321.422 856.993 307.44 852.673C293.218 848.279 289.62 836.276 289.604 822.316C289.501 773.933 289.608 725.625 289.607 677.279L289.592 384.284L289.689 267.513C289.658 248.618 288.179 223.83 290.839 205.416C291.565 200.387 294.89 197.453 299.032 194.943Z" fill="#EEEDED"/>
<path d="M1606.7 185.778C1611.37 185.446 1616.41 186.25 1620.62 188.327C1626.05 191.004 1629.56 195.902 1631.47 201.549C1635.92 214.778 1633.63 295.172 1633.56 314.848L1633.49 437.025L1633.55 694.718C1633.54 737.542 1633.5 780.418 1633.4 823.187C1633.35 838.828 1627.13 849.998 1610.76 841.039C1589.35 829.328 1567.79 816.366 1546.66 804.178L1418.08 730.011L1010.29 494.709C1003.03 490.628 995.803 486.495 988.603 482.311C953.897 461.794 958.575 442.232 958.547 406.649L958.528 348.109L958.547 261.548C958.556 245.913 958.303 229.967 958.819 214.51C959.494 193.978 967.856 190.621 985.003 200.181C995.503 206.031 1006.16 212.112 1016.56 218.103L1084.88 257.522L1406.34 443.015L1505.37 500.219C1523.73 510.859 1541.95 521.618 1560.62 531.734C1569.04 536.297 1582.74 538.614 1584.25 525.394C1586.66 504.173 1585.41 481.268 1585.39 459.754L1585.41 298.078C1585.39 272.822 1585.25 247.532 1585.43 222.278C1585.56 204.036 1586.11 190.32 1606.7 185.778Z" fill="#EEEDED"/>
</svg>
